<svg xmlns="http://www.w3.org/2000/svg" width="48" height="48" viewBox="0 0 48 48"><g transform="translate(0 -1004.362)"><circle cx="24" cy="1028.362" r="24" fill="#3a6c87"/><path fill="#2f4b6c" d="M 29.5 11.246094 A 6.4999887 6.4999887 0 0 0 24.242188 13.935547 A 3.9999995 3.9999995 0 0 0 22 13.246094 A 3.9999995 3.9999995 0 0 0 18 17.246094 A 3.9999995 3.9999995 0 0 0 18.041016 17.78125 A 2.4999997 2.4999997 0 0 0 16.5 17.246094 A 2.4999997 2.4999997 0 0 0 14.050781 19.246094 L 14 19.246094 C 11.784 19.246094 10 21.030094 10 23.246094 C 10 23.800094 10.110625 24.325813 10.3125 24.804688 C 10.413258 25.043944 10.536451 25.269802 10.679688 25.482422 L 10.681641 25.484375 C 10.824506 25.696128 10.986213 25.894142 11.166016 26.074219 L 11.169922 26.076172 C 11.172516 26.078764 11.175133 26.081399 11.177734 26.083984 L 14.498047 29.40625 L 14.498047 36.248047 A 0.50005 0.50005 0 0 0 15.005859 36.753906 L 26.138672 47.886719 A 23.999998 23.999998 0 0 0 47.042969 30.640625 L 36.835938 20.433594 C 36.813111 20.410764 36.785092 20.39337 36.761719 20.371094 C 36.652405 20.266861 36.536625 20.17158 36.416016 20.080078 C 36.363685 20.040357 36.314072 19.998119 36.259766 19.960938 C 36.086594 19.842445 35.906153 19.733449 35.714844 19.642578 A 6.4999887 6.4999887 0 0 0 36 17.746094 A 6.4999887 6.4999887 0 0 0 29.5 11.246094 z " transform="translate(0 1004.362)"/><path fill="#fff" d="m 29.50003,1015.6076 a 6.4999887,6.4999887 0 0 0 -5.25781,2.6894 3.9999995,3.9999995 0 0 0 -2.24219,-0.6894 3.9999995,3.9999995 0 0 0 -4,4 3.9999995,3.9999995 0 0 0 0.041,0.5352 2.4999997,2.4999997 0 0 0 -1.54101,-0.5352 2.4999997,2.4999997 0 0 0 -2.44922,2 l -0.0508,0 c -2.216,0 -4,1.784 -4,4 0,2.216 1.784,4 4,4 l 20,0 c 2.216,0 4,-1.784 4,-4 0,-1.599 -0.93525,-2.9623 -2.28516,-3.6035 A 6.4999887,6.4999887 0 0 0 36,1022.1076 a 6.4999887,6.4999887 0 0 0 -6.5,-6.5 z m -7.50781,16.9863 a 0.50005,0.50005 0 0 0 -0.49219,0.5078 l 0,7 a 0.50005,0.50005 0 1 0 1,0 l 0,-7 a 0.50005,0.50005 0 0 0 -0.50781,-0.5078 z m -7,0.5078 a 0.50005,0.50005 0 0 0 -0.49415,0.5079 l 0,7 a 0.50005,0.50005 0 1 0 1,0 l 0,-7 a 0.50005,0.50005 0 0 0 -0.50585,-0.5079 z m 14,0 a 0.50005,0.50005 0 0 0 -0.49415,0.5079 l 0,7 a 0.50005,0.50005 0 1 0 1,0 l 0,-7 a 0.50005,0.50005 0 0 0 -0.50585,-0.5079 z m -10.5,0.3321 a 0.50004976,0.50004976 0 0 0 -0.49415,0.5058 l 0,3.1621 a 0.50004976,0.50004976 0 1 0 1,0 l 0,-3.1621 a 0.50004976,0.50004976 0 0 0 -0.50585,-0.5058 z m 14,0 a 0.50004976,0.50004976 0 0 0 -0.49415,0.5058 l 0,3.1621 a 0.50004976,0.50004976 0 1 0 1,0 l 0,-3.1621 a 0.50004976,0.50004976 0 0 0 -0.50585,-0.5058 z m -7,0.1211 a 0.50004976,0.50004976 0 0 0 -0.49219,0.5058 l 0,3.9199 a 0.50004976,0.50004976 0 1 0 1,0 l 0,-3.9199 a 0.50004976,0.50004976 0 0 0 -0.50781,-0.5058 z"/></g></svg>